<?xml version="1.0" encoding="UTF-8" standalone="no"?>
<svg width="36px" height="36px" viewBox="0 0 36 36" version="1.1" xmlns="http://www.w3.org/2000/svg" xmlns:xlink="http://www.w3.org/1999/xlink" xmlns:sketch="http://www.bohemiancoding.com/sketch/ns">
    <!-- Generator: Sketch 3.3.3 (12072) - http://www.bohemiancoding.com/sketch -->
    <title>twitter</title>
    <desc>Created with Sketch.</desc>
    <defs></defs>
    <g id="Page-1" stroke="none" stroke-width="1" fill="none" fill-rule="evenodd" sketch:type="MSPage">
        <g id="Icons" sketch:type="MSArtboardGroup" transform="translate(-319.000000, -114.000000)" fill="#000000">
            <path d="M59,54.4L59,54.4c4.9-7.4,3.8-17-2.5-23.4c-3.6-3.6-8.2-5.5-13.2-5.5s-9.7,2-13.3,5.5c-7.4,7.4-7.3,19.2-0.1,26.5  c3.6,3.6,8.2,5.5,13.3,5.5c3.7,0,7.2-1,10.2-2.9l9,9c2,2,5.1,2,7.1,0l2.1-2.1L59,54.4z M35.6,51.8c-4-4-4.2-10.5-0.4-14.8  c0.1-0.2,0.3-0.3,0.4-0.4c2.1-2,4.7-3.2,7.6-3.2s5.6,1.1,7.6,3.2c4.2,4.2,4.2,11,0,15.2c-2,2-4.7,3.2-7.6,3.2S37.7,53.8,35.6,51.8z" id="search" sketch:type="MSShapeGroup"></path>
        </g>
    </g>
</svg>